<svg xmlns:mydata="http://www.w3.org/2000/svg" mydata:contrastcolor="e6f9f3" mydata:template="Default" mydata:presentation="2.5" mydata:layouttype="undefined" mydata:specialfontid="undefined" mydata:id1="011" mydata:id2="014" mydata:companyname="ic-connect-js" mydata:companytagline="" version="1.1" xmlns="http://www.w3.org/2000/svg" xmlns:xlink="http://www.w3.org/1999/xlink" viewBox="0 35 550 400"><g fill="none" fill-rule="none" stroke="none" stroke-width="1" stroke-linecap="butt" stroke-linejoin="miter" stroke-miterlimit="10" stroke-dasharray="" stroke-dashoffset="0" font-family="none" font-weight="none" font-size="none" text-anchor="none" style="mix-blend-mode: normal"><g data-paper-data="{&quot;isGlobalGroup&quot;:true,&quot;bounds&quot;:{&quot;x&quot;:65,&quot;y&quot;:150.43407437963285,&quot;width&quot;:420,&quot;height&quot;:169.13185124073433}}"><g data-paper-data="{&quot;isPrimaryText&quot;:true}" fill="#00c389" fill-rule="nonzero"><path d="M80.47425,288.77806v-7.49618h-15.47425v7.49618h4.01581v22.54207h-4.01581v7.49618h15.47425v-7.49618h-3.96226v-22.54207z" data-paper-data="{&quot;glyphName&quot;:&quot;I&quot;,&quot;glyphIndex&quot;:0,&quot;firstGlyphOfWord&quot;:true,&quot;word&quot;:1}"></path><path d="M117.25905,284.8158c-3.31973,-2.57012 -7.49618,-4.1229 -11.99388,-4.1229c-10.70882,0 -19.43651,8.72769 -19.43651,19.43651c0,10.70882 8.72769,19.43651 19.43651,19.43651c4.71188,0 9.04895,-1.71341 12.42223,-4.49771l-4.81897,-5.51504c-7.06782,5.35441 -18.68689,1.12443 -18.68689,-9.42376c0,-10.06629 10.97654,-14.45691 18.25854,-9.74503z" data-paper-data="{&quot;glyphName&quot;:&quot;C&quot;,&quot;glyphIndex&quot;:1,&quot;word&quot;:1}"></path><path d="M124.64814,303.23497h18.31209v6.21112h-18.31209z" data-paper-data="{&quot;glyphName&quot;:&quot;-&quot;,&quot;glyphIndex&quot;:2,&quot;word&quot;:1}"></path><path d="M181.35135,284.8158c-3.31973,-2.57012 -7.49618,-4.1229 -11.99388,-4.1229c-10.70882,0 -19.43651,8.72769 -19.43651,19.43651c0,10.70882 8.72769,19.43651 19.43651,19.43651c4.71188,0 9.04895,-1.71341 12.42223,-4.49771l-4.81897,-5.51504c-7.06782,5.35441 -18.68689,1.12443 -18.68689,-9.42376c0,-10.06629 10.97654,-14.45691 18.25854,-9.74503z" data-paper-data="{&quot;glyphName&quot;:&quot;C&quot;,&quot;glyphIndex&quot;:3,&quot;word&quot;:1}"></path><path d="M202.82254,280.58581c-10.70882,0 -19.43651,8.72769 -19.43651,19.43651c0,10.70882 8.72769,19.43651 19.43651,19.43651c10.70882,0 19.43651,-8.72769 19.43651,-19.43651c0,-10.70882 -8.72769,-19.43651 -19.43651,-19.43651zM202.82254,288.29617c6.47884,0 11.72616,5.24732 11.72616,11.72616c0,6.47884 -5.24732,11.72616 -11.72616,11.72616c-6.47884,0 -11.72616,-5.24732 -11.72616,-11.72616c0,-6.47884 5.24732,-11.72616 11.72616,-11.72616zM202.82254,295.04272c2.89138,0 4.9796,2.08822 4.9796,4.9796c0,2.89138 -2.08822,4.9796 -4.9796,4.9796c-2.89138,0 -4.9796,-2.08822 -4.9796,-4.9796c0,-2.89138 2.08822,-4.9796 4.9796,-4.9796z" data-paper-data="{&quot;glyphName&quot;:&quot;O&quot;,&quot;glyphIndex&quot;:4,&quot;word&quot;:1}"></path><path d="M257.2769,318.81631l-21.09638,-21.89954v21.89954h-7.49618v-37.53442h2.35594l20.72157,20.98929v-20.98929h7.49618v37.53442z" data-paper-data="{&quot;glyphName&quot;:&quot;N&quot;,&quot;glyphIndex&quot;:5,&quot;word&quot;:1}"></path><path d="M294.81132,318.81631l-21.09638,-21.89954v21.89954h-7.49618v-37.53442h2.35594l20.72157,20.98929v-20.98929h7.49618v37.53442z" data-paper-data="{&quot;glyphName&quot;:&quot;N&quot;,&quot;glyphIndex&quot;:6,&quot;word&quot;:1}"></path><path d="M328.75829,281.28189h-25.0051v37.53442h24.84447v-7.49618h-17.34829v-8.1387h14.45691v-7.49618h-14.45691v-6.90719h17.50892z" data-paper-data="{&quot;glyphName&quot;:&quot;E&quot;,&quot;glyphIndex&quot;:7,&quot;word&quot;:1}"></path><path d="M363.40133,284.8158c-3.31973,-2.57012 -7.49618,-4.1229 -11.99388,-4.1229c-10.70882,0 -19.43651,8.72769 -19.43651,19.43651c0,10.70882 8.72769,19.43651 19.43651,19.43651c4.71188,0 9.04895,-1.71341 12.42223,-4.49771l-4.81897,-5.51504c-7.06782,5.35441 -18.68689,1.12443 -18.68689,-9.42376c0,-10.06629 10.97654,-14.45691 18.25854,-9.74503z" data-paper-data="{&quot;glyphName&quot;:&quot;C&quot;,&quot;glyphIndex&quot;:8,&quot;word&quot;:1}"></path><path d="M369.98725,281.28189v7.49618h10.4411v30.03825h7.49618v-30.03825h10.38756v-7.49618z" data-paper-data="{&quot;glyphName&quot;:&quot;T&quot;,&quot;glyphIndex&quot;:9,&quot;word&quot;:1}"></path><path d="M404.46966,303.23497h18.31209v6.21112h-18.31209z" data-paper-data="{&quot;glyphName&quot;:&quot;-&quot;,&quot;glyphIndex&quot;:10,&quot;word&quot;:1}"></path><path d="M437.61346,281.28189l-0.16063,6.8001h7.92453v18.36563h-0.16063v0.05354c0,1.28506 -0.4819,2.46303 -1.39215,3.37328c-0.91025,0.91025 -2.08822,1.44569 -3.37328,1.44569c-1.28506,0 -2.51657,-0.53544 -3.42682,-1.44569c-0.91025,-0.91025 -1.39215,-2.08822 -1.39215,-3.37328v-0.05354h-7.49618v0.05354c0,6.8001 5.51504,12.31515 12.31515,12.31515c6.74656,0 12.2616,-5.51504 12.2616,-12.31515v-0.05354h0.05354v-25.16573z" data-paper-data="{&quot;glyphName&quot;:&quot;J&quot;,&quot;glyphIndex&quot;:11,&quot;word&quot;:1}"></path><path d="M471.13208,302.96725l0.16063,0.05354c3.90872,1.3386 6.21112,3.21265 6.21112,5.24732c0,0.96379 -1.01734,3.80163 -4.1229,3.80163c-1.65987,0 -6.10403,0 -10.06629,-4.22998l-5.4615,5.14023c2.57012,2.73075 5.56859,4.60479 8.94187,5.67568c2.67721,0.80316 4.92606,0.91025 6.58593,0.91025c3.37328,0 6.42529,-1.39215 8.6206,-3.85518c1.87404,-2.08822 2.99847,-4.81897 2.99847,-7.44263c0,-2.67721 -1.01734,-5.19378 -2.94493,-7.33554c-1.92759,-2.08822 -4.71188,-3.74809 -8.29934,-4.9796c-0.32126,-0.10709 -0.64253,-0.21418 -1.07088,-0.32126c-3.42682,-0.85671 -4.76543,-1.92759 -4.81897,-3.85518c-0.05354,-1.23151 0.32126,-1.8205 0.64253,-2.14176c0.96379,-1.01734 2.83784,-1.39215 3.31973,-1.39215c3.26619,0 4.81897,1.01734 7.22845,2.57012l1.3386,0.85671l3.90872,-6.37175l-1.23151,-0.80316c-2.73075,-1.76696 -5.78276,-3.74809 -11.24426,-3.74809c-1.92759,0 -5.9434,0.80316 -8.72769,3.69454c-1.92759,2.03468 -2.89138,4.65834 -2.73075,7.65681c0.16063,3.58746 1.8205,6.47884 4.81897,8.45997c2.14176,1.44569 4.44416,2.03468 5.67568,2.35594z" data-paper-data="{&quot;glyphName&quot;:&quot;S&quot;,&quot;glyphIndex&quot;:12,&quot;lastGlyphOfWord&quot;:true,&quot;word&quot;:1}"></path></g><g data-paper-data="{&quot;isIcon&quot;:&quot;true&quot;,&quot;iconType&quot;:&quot;icon&quot;,&quot;rawIconId&quot;:&quot;1340339&quot;,&quot;selectedEffects&quot;:{&quot;container&quot;:&quot;&quot;,&quot;transformation&quot;:&quot;&quot;,&quot;pattern&quot;:&quot;&quot;},&quot;isDetailed&quot;:false,&quot;fillRule&quot;:&quot;evenodd&quot;,&quot;bounds&quot;:{&quot;x&quot;:198.86579154795086,&quot;y&quot;:150.43407437963285,&quot;width&quot;:152.26841690409825,&quot;height&quot;:108.09129594912181},&quot;iconStyle&quot;:&quot;standalone&quot;,&quot;suitableAsStandaloneIcon&quot;:true}" fill-rule="evenodd"><g data-paper-data="{&quot;isPathIcon&quot;:true}"><path d="M252.91094,150.43407l-54.04515,54.04715l54.04715,54.04415l14.80504,-14.80604l-39.23811,-39.23811l39.23811,-39.24011z" fill="#00c389"></path><path d="M282.28002,165.24111l14.80704,-14.80704l54.04715,54.04715l-54.04715,54.04415l-14.80704,-14.80504l39.23911,-39.23911z" fill="#5d4777"></path></g></g></g></g></svg>