<svg xmlns:mydata="http://www.w3.org/2000/svg" mydata:contrastcolor="ffffff" mydata:template="Default" mydata:presentation="2.5" mydata:layouttype="undefined" mydata:specialfontid="undefined" mydata:id1="5" mydata:id2="639" mydata:companyname="ares" xmlns="http://www.w3.org/2000/svg" viewBox="0 35 550 400"><g data-paper-data="{&quot;isGlobalGroup&quot;:true,&quot;bounds&quot;:{&quot;x&quot;:117.42486861021395,&quot;y&quot;:115.83294880731049,&quot;width&quot;:315.1502627795721,&quot;height&quot;:238.33410238537905}}" fill="#fff" fill-rule="none" stroke-miterlimit="10" font-family="none" font-weight="none" font-size="none" text-anchor="none" style="mix-blend-mode:normal"><g data-paper-data="{&quot;isPrimaryText&quot;:true}" fill-rule="nonzero"><path d="M188.59424 354.16705h-12.90379V336.6973h-45.36179v17.46975h-12.90379v-35.58468c0-5.1946.89334-9.97562 2.68002-14.34306 1.78668-4.36744 4.26818-8.12277 7.44449-11.266 3.17632-3.14323 6.93165-5.59164 11.266-7.34523s9.06574-2.63039 14.19417-2.63039h29.08316c.89334 0 1.73705.16543 2.53113.4963.79408.33087 1.4889.79408 2.08446 1.38964.59556.59556 1.05877 1.29038 1.38964 2.08446.33087.79408.4963 1.63779.4963 2.53113zm-58.26558-30.37354h45.36179v-27.89204h-22.68089c-.39704 0-1.23248.0579-2.50631.1737-1.27384.1158-2.74619.40531-4.41707.86852-1.67088.46321-3.43274 1.17458-5.28559 2.13409-1.85285.95951-3.55681 2.28298-5.11189 3.9704-1.55507 1.68742-2.83718 3.79669-3.84632 6.32782s-1.51371 5.59991-1.51371 9.20636z" data-paper-data="{&quot;glyphName&quot;:&quot;A&quot;,&quot;glyphIndex&quot;:0,&quot;firstGlyphOfWord&quot;:true,&quot;word&quot;:1}"/><path d="M274.70222 306.91933c0 2.94471-.36395 5.5751-1.09186 7.89116-.72791 2.31606-1.71223 4.35917-2.95298 6.1293-1.24075 1.77014-2.67175 3.28385-4.29299 4.54114-1.62125 1.25729-3.31694 2.29125-5.08707 3.10187-1.77014.81062-3.55681 1.39791-5.36004 1.76186-1.80322.36395-3.49891.54593-5.08707.54593l26.94907 23.27645h-19.95124l-26.89944-23.27645h-9.2808V317.9868h29.18242c1.62125-.13235 3.10187-.47148 4.44188-1.01741 1.34001-.54593 2.49804-1.28211 3.4741-2.20853.97606-.92643 1.72878-2.0431 2.25816-3.35002.52939-1.30692.79408-2.80409.79408-4.49151v-8.13931c0-.72791-.09099-1.28211-.27296-1.6626-.18198-.3805-.41358-.66173-.69482-.84371-.28124-.18198-.57902-.28951-.89334-.32259-.31432-.03309-.60383-.04963-.86852-.04963h-42.58251v58.26558H203.5825v-64.66784c0-.89334.16543-1.73705.4963-2.53113.33087-.79408.78581-1.4889 1.36482-2.08446.57902-.59556 1.26556-1.05877 2.05964-1.38964.79408-.33087 1.65433-.4963 2.58076-.4963h48.98477c2.87854 0 5.31041.52111 7.2956 1.56334 1.9852 1.04223 3.59817 2.34915 4.83892 3.92077 1.24075 1.57162 2.13409 3.26731 2.68002 5.08707.54593 1.81977.81889 3.52373.81889 5.11189z" data-paper-data="{&quot;glyphName&quot;:&quot;R&quot;,&quot;glyphIndex&quot;:1,&quot;word&quot;:1}"/><path d="M346.16937 325.08389h-40.7462v-13.00305h40.7462zm5.8067 29.08316h-46.5529c-1.78668 0-3.73879-.31432-5.85634-.94297-2.11755-.62865-4.07793-1.6626-5.88115-3.10187-1.80322-1.43927-3.30866-3.30866-4.51633-5.60819-1.20766-2.29952-1.81149-5.12016-1.81149-8.46191v-46.5529c0-.89334.16543-1.73705.4963-2.53113.33087-.79408.78581-1.4889 1.36482-2.08446.57902-.59556 1.26556-1.05877 2.05964-1.38964.79408-.33087 1.65433-.4963 2.58076-.4963h58.11669v12.90379h-51.71442v40.15064c0 1.68742.44667 2.9778 1.34001 3.87114.89334.89334 2.20026 1.34001 3.92077 1.34001h46.45365z" data-paper-data="{&quot;glyphName&quot;:&quot;E&quot;,&quot;glyphIndex&quot;:2,&quot;word&quot;:1}"/><path d="M432.57513 333.22321c0 2.54767-.32259 4.83892-.96778 6.87375-.64519 2.03483-1.49717 3.82978-2.55594 5.38485-1.05877 1.55507-2.29952 2.87854-3.72225 3.9704s-2.89508 1.9852-4.41707 2.68002c-1.52199.69482-3.06879 1.20766-4.6404 1.53853-1.57162.33087-3.05224.4963-4.44188.4963h-49.77885v-12.90379h49.77885c2.4815 0 4.4088-.72791 5.78189-2.18372 1.3731-1.45581 2.05964-3.40792 2.05964-5.85634 0-1.19112-.18198-2.28298-.54593-3.27558-.36395-.9926-.88507-1.85285-1.56334-2.58076-.67828-.72791-1.50544-1.29038-2.4815-1.68742-.97606-.39704-2.05964-.59556-3.25076-.59556h-29.67872c-2.08446 0-4.33435-.37222-6.74967-1.11667-2.41532-.74445-4.65694-1.94384-6.72486-3.59817s-3.78842-3.82151-5.16152-6.50153c-1.3731-2.68002-2.05964-5.9556-2.05964-9.82673 0-3.87114.68655-7.13844 2.05964-9.80192 1.3731-2.66347 3.0936-4.83065 5.16152-6.50153 2.06792-1.67088 4.30954-2.87854 6.72486-3.62299 2.41532-.74445 4.66522-1.11667 6.74967-1.11667h43.92252v12.90379h-43.92252c-2.44841 0-4.35917.74445-5.73226 2.23335-1.3731 1.4889-2.05964 3.45755-2.05964 5.90597 0 2.4815.68655 4.44188 2.05964 5.88115 1.3731 1.43927 3.28385 2.1589 5.73226 2.1589h29.77798c1.38964.03309 2.86199.22333 4.41707.57074 1.55507.34741 3.10187.88507 4.6404 1.61297 1.53853.72791 3.00261 1.64606 4.39225 2.75446 1.38964 1.1084 2.62212 2.44014 3.69743 3.99521 1.07532 1.55507 1.9273 3.34175 2.55594 5.36004.62865 2.01829.94297 4.30126.94297 6.84893z" data-paper-data="{&quot;glyphName&quot;:&quot;S&quot;,&quot;glyphIndex&quot;:3,&quot;lastGlyphOfWord&quot;:true,&quot;word&quot;:1}"/></g><g data-paper-data="{&quot;fillRule&quot;:&quot;evenodd&quot;,&quot;fillRuleOriginal&quot;:&quot;evenodd&quot;,&quot;isIcon&quot;:true,&quot;iconStyle&quot;:&quot;standalone&quot;,&quot;selectedEffects&quot;:{&quot;container&quot;:&quot;&quot;,&quot;transformation&quot;:&quot;&quot;,&quot;pattern&quot;:&quot;&quot;},&quot;bounds&quot;:{&quot;x&quot;:206.83685472472052,&quot;y&quot;:115.83294880731049,&quot;width&quot;:136.3262905505589,&quot;height&quot;:136.07767912322686},&quot;iconType&quot;:&quot;icon&quot;,&quot;rawIconId&quot;:&quot;37726&quot;,&quot;isDetailed&quot;:false,&quot;suitableAsStandaloneIcon&quot;:true}" fill-rule="evenodd"><path d="m326.99182 139.93997-7.98061 7.98061c8.07202 9.8282 12.92358 22.39413 12.92358 36.07472 0 13.67898-4.85476 26.2417-12.92518 36.0699l-10.25643-10.25643c5.48346-7.15624 8.74723-16.10075 8.74723-25.81348 0-21.56817-16.07188-39.37217-36.88946-42.12112l.0016-14.53061c11.49137 1.13069 21.99318 5.68394 30.45974 12.6365l7.98061-7.98061c-11.8827-10.0768-27.25371-16.1665-44.05372-16.1665-37.64486 0-68.16234 30.51748-68.16234 68.16234 0 35.75395 27.53278 65.05574 62.54897 67.91375v-11.25721c-28.76932-2.82914-51.32223-27.15427-51.32223-56.65654 0-29.49906 22.55291-53.8274 51.32063-56.65654v14.529c-18.97639 2.50677-33.99937 17.53456-36.50615 36.51416h11.3791c2.65592-14.5707 15.41591-25.66112 30.74202-25.66112 17.24427 0 31.27448 14.03022 31.27448 31.27448 0 17.24427-14.03022 31.27448-31.27448 31.27448-15.3261 0-28.08609-11.09042-30.74202-25.66112h-11.3791c2.74894 20.81758 20.55295 36.88785 42.12112 36.88785 9.71434 0 18.66044-3.26538 25.81669-8.74723l10.25482 10.25322c-8.46817 6.95256-18.96357 11.52024-30.45654 12.65093v11.25721c35.0162-2.8564 62.54897-32.15979 62.54897-67.91375-.0016-16.80322-6.09291-32.17423-16.17132-44.05693zm-35.353 44.05532c0 .27233-.00668.54449-.02005.81651-.01337.27201-.03341.54348-.06014.81442-.02662.27104-.05993.54124-.09992.81057-.03999.26944-.08655.5377-.13969.8048-.05303.26709-.11264.53268-.17883.79678-.06619.2642-.13879.52659-.2178.78715-.07912.26057-.16455.51905-.25629.77544-.09174.2564-.18968.51039-.29382.76198-.10425.25158-.21459.5005-.33103.74674-.11644.24613-.23886.48928-.36728.72942-.1283.24025-.26249.47714-.40256.71066-.13996.23362-.28559.46361-.43688.68996-.15129.22646-.30804.44907-.47024.66783-.1622.21865-.32969.43324-.50248.64377-.17279.21053-.3506.41667-.53343.61843-.18294.20176-.3707.39892-.56326.59149-.19257.19257-.38973.38032-.59149.56326-.20176.18283-.4079.36064-.61843.53343-.21053.17279-.42512.34028-.64377.50248-.21876.1622-.44137.31895-.66783.47024-.22635.15129-.45634.29692-.68996.43688-.23351.14007-.4704.27425-.71066.40256-.24015.12841-.48328.25084-.72942.36728-.24624.11644-.49515.22678-.74674.33103-.25158.10414-.50558.20208-.76198.29382-.2564.09174-.51488.17717-.77544.25629-.26057.07901-.52295.15162-.78715.2178-.2641.06619-.52969.1258-.79678.17883-.26709.05314-.53535.0997-.8048.13969-.26933.03999-.53952.0733-.81057.09992-.27094.02673-.54242.04678-.81442.06014-.27201.01337-.54417.02005-.81651.02005-.27233 0-.54449-.00668-.81651-.02005-.27201-.01337-.54348-.03341-.81442-.06014-.27104-.02662-.54124-.05993-.81057-.09992-.26944-.03999-.5377-.08655-.8048-.13969-.26709-.05303-.53268-.11264-.79678-.17883-.2642-.06619-.52659-.13879-.78715-.2178-.26057-.07912-.51905-.16455-.77544-.25629-.2564-.09174-.51039-.18968-.76198-.29382-.25158-.10425-.5005-.21459-.74674-.33103-.24613-.11644-.48928-.23886-.72942-.36728-.24025-.1283-.47714-.26249-.71066-.40256-.23362-.13996-.46361-.28559-.68996-.43688-.22646-.15129-.44907-.30804-.66783-.47024-.21865-.1622-.43324-.32969-.64377-.50248-.21053-.17279-.41667-.3506-.61843-.53343-.20176-.18294-.39892-.3707-.59149-.56326-.19257-.19257-.38032-.38973-.56326-.59149-.18283-.20176-.36064-.4079-.53343-.61843-.17279-.21053-.34028-.42512-.50248-.64377-.1622-.21876-.31895-.44137-.47024-.66783-.15129-.22635-.29692-.45634-.43688-.68996-.14007-.23351-.27425-.4704-.40256-.71066-.12841-.24015-.25084-.48328-.36728-.72942-.11644-.24624-.22678-.49515-.33103-.74674-.10414-.25158-.20208-.50558-.29382-.76198-.09174-.2564-.17717-.51488-.25629-.77544-.07901-.26057-.15162-.52295-.2178-.78715-.06619-.2641-.1258-.52969-.17883-.79678-.05314-.26709-.0997-.53535-.13969-.8048-.03999-.26933-.0733-.53952-.09992-.81057-.02673-.27094-.04678-.54242-.06014-.81442-.01337-.27201-.02005-.54417-.02005-.81651 0-.27233.00668-.54449.02005-.81651.01337-.27201.03341-.54348.06014-.81442.02662-.27104.05993-.54124.09992-.81057.03999-.26944.08655-.5377.13969-.8048.05303-.26709.11264-.53268.17883-.79678.06619-.2642.13879-.52659.2178-.78715.07912-.26057.16455-.51905.25629-.77544.09174-.2564.18968-.51039.29382-.76198.10425-.25158.21459-.5005.33103-.74674.11644-.24613.23886-.48928.36728-.72942.1283-.24025.26249-.47714.40256-.71066.13996-.23362.28559-.46361.43688-.68996.15129-.22646.30804-.44907.47024-.66783.1622-.21865.32969-.43324.50248-.64377.17279-.21053.3506-.41667.53343-.61843.18294-.20176.3707-.39892.56326-.59149.19257-.19257.38973-.38032.59149-.56326.20176-.18283.4079-.36064.61843-.53343.21053-.17279.42512-.34028.64377-.50248.21876-.1622.44137-.31895.66783-.47024.22635-.15129.45634-.29692.68996-.43688.23351-.14007.4704-.27425.71066-.40256.24015-.12841.48328-.25084.72942-.36728.24624-.11644.49515-.22678.74674-.33103.25158-.10414.50558-.20208.76198-.29382.2564-.09174.51488-.17717.77544-.25629.26057-.07901.52295-.15162.78715-.2178.2641-.06619.52969-.1258.79678-.17883.26709-.05314.53535-.0997.8048-.13969.26933-.03999.53952-.0733.81057-.09992.27094-.02673.54242-.04678.81442-.06014.27201-.01337.54417-.02005.81651-.02005.27233 0 .54449.00668.81651.02005.27201.01337.54348.03341.81442.06014.27104.02662.54124.05993.81057.09992.26944.03999.5377.08655.8048.13969.26709.05303.53268.11264.79678.17883.2642.06619.52659.13879.78715.2178.26057.07912.51905.16455.77544.25629.2564.09174.51039.18968.76198.29382.25158.10425.5005.21459.74674.33103.24613.11644.48928.23886.72942.36728.24025.1283.47714.26249.71066.40256.23362.13996.46361.28559.68996.43688.22646.15129.44907.30804.66783.47024.21865.1622.43324.32969.64377.50248.21053.17279.41667.3506.61843.53343.20176.18294.39892.3707.59149.56326.19257.19257.38032.38973.56326.59149.18283.20176.36064.4079.53343.61843.17279.21053.34028.42512.50248.64377.1622.21876.31895.44137.47024.66783.15129.22635.29692.45634.43688.68996.14007.23351.27425.4704.40256.71066.12841.24015.25084.48328.36728.72942.11644.24624.22678.49515.33103.74674.10414.25158.20208.50558.29382.76198.09174.2564.17717.51488.25629.77544.07901.26057.15162.52295.2178.78715.06619.2641.1258.52969.17883.79678.05314.26709.0997.53535.13969.8048.03999.26933.0733.53952.09992.81057.02673.27094.04678.54242.06014.81442.01337.27201.02005.54417.02005.81651z" data-paper-data="{&quot;isPathIcon&quot;:true}"/></g></g></svg>