<svg xmlns:mydata="http://www.w3.org/2000/svg" mydata:contrastcolor="ffffff" mydata:template="Default" mydata:presentation="2.5" mydata:layouttype="undefined" mydata:specialfontid="undefined" mydata:id1="005" mydata:id2="639" mydata:companyname="ares" mydata:companytagline="" version="1.1" xmlns="http://www.w3.org/2000/svg" xmlns:xlink="http://www.w3.org/1999/xlink" viewBox="0 35 550 400"><g fill="#3d3935" fill-rule="none" stroke="none" stroke-width="1" stroke-linecap="butt" stroke-linejoin="miter" stroke-miterlimit="10" stroke-dasharray="" stroke-dashoffset="0" font-family="none" font-weight="none" font-size="none" text-anchor="none" style="mix-blend-mode: normal"><g data-paper-data="{&quot;isGlobalGroup&quot;:true,&quot;bounds&quot;:{&quot;x&quot;:117.42486861021395,&quot;y&quot;:115.83294880731049,&quot;width&quot;:315.1502627795721,&quot;height&quot;:238.33410238537905}}"><g data-paper-data="{&quot;isPrimaryText&quot;:true}" fill-rule="nonzero"><path d="M188.59424,354.16705h-12.90379v-17.46975h-45.36179v17.46975h-12.90379v-35.58468c0,-5.1946 0.89334,-9.97562 2.68002,-14.34306c1.78668,-4.36744 4.26818,-8.12277 7.44449,-11.266c3.17632,-3.14323 6.93165,-5.59164 11.266,-7.34523c4.33435,-1.75359 9.06574,-2.63039 14.19417,-2.63039h29.08316c0.89334,0 1.73705,0.16543 2.53113,0.4963c0.79408,0.33087 1.4889,0.79408 2.08446,1.38964c0.59556,0.59556 1.05877,1.29038 1.38964,2.08446c0.33087,0.79408 0.4963,1.63779 0.4963,2.53113zM130.32866,323.79351h45.36179v-27.89204h-22.68089c-0.39704,0 -1.23248,0.0579 -2.50631,0.1737c-1.27384,0.1158 -2.74619,0.40531 -4.41707,0.86852c-1.67088,0.46321 -3.43274,1.17458 -5.28559,2.13409c-1.85285,0.95951 -3.55681,2.28298 -5.11189,3.9704c-1.55507,1.68742 -2.83718,3.79669 -3.84632,6.32782c-1.00914,2.53113 -1.51371,5.59991 -1.51371,9.20636z" data-paper-data="{&quot;glyphName&quot;:&quot;A&quot;,&quot;glyphIndex&quot;:0,&quot;firstGlyphOfWord&quot;:true,&quot;word&quot;:1}"></path><path d="M274.70222,306.91933c0,2.94471 -0.36395,5.5751 -1.09186,7.89116c-0.72791,2.31606 -1.71223,4.35917 -2.95298,6.1293c-1.24075,1.77014 -2.67175,3.28385 -4.29299,4.54114c-1.62125,1.25729 -3.31694,2.29125 -5.08707,3.10187c-1.77014,0.81062 -3.55681,1.39791 -5.36004,1.76186c-1.80322,0.36395 -3.49891,0.54593 -5.08707,0.54593l26.94907,23.27645h-19.95124l-26.89944,-23.27645h-9.2808v-12.90379h29.18242c1.62125,-0.13235 3.10187,-0.47148 4.44188,-1.01741c1.34001,-0.54593 2.49804,-1.28211 3.4741,-2.20853c0.97606,-0.92643 1.72878,-2.0431 2.25816,-3.35002c0.52939,-1.30692 0.79408,-2.80409 0.79408,-4.49151v-8.13931c0,-0.72791 -0.09099,-1.28211 -0.27296,-1.6626c-0.18198,-0.3805 -0.41358,-0.66173 -0.69482,-0.84371c-0.28124,-0.18198 -0.57902,-0.28951 -0.89334,-0.32259c-0.31432,-0.03309 -0.60383,-0.04963 -0.86852,-0.04963h-42.58251v58.26558h-12.90379v-64.66784c0,-0.89334 0.16543,-1.73705 0.4963,-2.53113c0.33087,-0.79408 0.78581,-1.4889 1.36482,-2.08446c0.57902,-0.59556 1.26556,-1.05877 2.05964,-1.38964c0.79408,-0.33087 1.65433,-0.4963 2.58076,-0.4963h48.98477c2.87854,0 5.31041,0.52111 7.2956,1.56334c1.9852,1.04223 3.59817,2.34915 4.83892,3.92077c1.24075,1.57162 2.13409,3.26731 2.68002,5.08707c0.54593,1.81977 0.81889,3.52373 0.81889,5.11189z" data-paper-data="{&quot;glyphName&quot;:&quot;R&quot;,&quot;glyphIndex&quot;:1,&quot;word&quot;:1}"></path><path d="M346.16937,325.08389h-40.7462v-13.00305h40.7462zM351.97607,354.16705h-46.5529c-1.78668,0 -3.73879,-0.31432 -5.85634,-0.94297c-2.11755,-0.62865 -4.07793,-1.6626 -5.88115,-3.10187c-1.80322,-1.43927 -3.30866,-3.30866 -4.51633,-5.60819c-1.20766,-2.29952 -1.81149,-5.12016 -1.81149,-8.46191v-46.5529c0,-0.89334 0.16543,-1.73705 0.4963,-2.53113c0.33087,-0.79408 0.78581,-1.4889 1.36482,-2.08446c0.57902,-0.59556 1.26556,-1.05877 2.05964,-1.38964c0.79408,-0.33087 1.65433,-0.4963 2.58076,-0.4963h58.11669v12.90379h-51.71442v40.15064c0,1.68742 0.44667,2.9778 1.34001,3.87114c0.89334,0.89334 2.20026,1.34001 3.92077,1.34001h46.45365z" data-paper-data="{&quot;glyphName&quot;:&quot;E&quot;,&quot;glyphIndex&quot;:2,&quot;word&quot;:1}"></path><path d="M432.57513,333.22321c0,2.54767 -0.32259,4.83892 -0.96778,6.87375c-0.64519,2.03483 -1.49717,3.82978 -2.55594,5.38485c-1.05877,1.55507 -2.29952,2.87854 -3.72225,3.9704c-1.42273,1.09186 -2.89508,1.9852 -4.41707,2.68002c-1.52199,0.69482 -3.06879,1.20766 -4.6404,1.53853c-1.57162,0.33087 -3.05224,0.4963 -4.44188,0.4963h-49.77885v-12.90379h49.77885c2.4815,0 4.4088,-0.72791 5.78189,-2.18372c1.3731,-1.45581 2.05964,-3.40792 2.05964,-5.85634c0,-1.19112 -0.18198,-2.28298 -0.54593,-3.27558c-0.36395,-0.9926 -0.88507,-1.85285 -1.56334,-2.58076c-0.67828,-0.72791 -1.50544,-1.29038 -2.4815,-1.68742c-0.97606,-0.39704 -2.05964,-0.59556 -3.25076,-0.59556h-29.67872c-2.08446,0 -4.33435,-0.37222 -6.74967,-1.11667c-2.41532,-0.74445 -4.65694,-1.94384 -6.72486,-3.59817c-2.06792,-1.65433 -3.78842,-3.82151 -5.16152,-6.50153c-1.3731,-2.68002 -2.05964,-5.9556 -2.05964,-9.82673c0,-3.87114 0.68655,-7.13844 2.05964,-9.80192c1.3731,-2.66347 3.0936,-4.83065 5.16152,-6.50153c2.06792,-1.67088 4.30954,-2.87854 6.72486,-3.62299c2.41532,-0.74445 4.66522,-1.11667 6.74967,-1.11667h43.92252v12.90379h-43.92252c-2.44841,0 -4.35917,0.74445 -5.73226,2.23335c-1.3731,1.4889 -2.05964,3.45755 -2.05964,5.90597c0,2.4815 0.68655,4.44188 2.05964,5.88115c1.3731,1.43927 3.28385,2.1589 5.73226,2.1589h29.67872h0.09926c1.38964,0.03309 2.86199,0.22333 4.41707,0.57074c1.55507,0.34741 3.10187,0.88507 4.6404,1.61297c1.53853,0.72791 3.00261,1.64606 4.39225,2.75446c1.38964,1.1084 2.62212,2.44014 3.69743,3.99521c1.07532,1.55507 1.9273,3.34175 2.55594,5.36004c0.62865,2.01829 0.94297,4.30126 0.94297,6.84893z" data-paper-data="{&quot;glyphName&quot;:&quot;S&quot;,&quot;glyphIndex&quot;:3,&quot;lastGlyphOfWord&quot;:true,&quot;word&quot;:1}"></path></g><g data-paper-data="{&quot;fillRule&quot;:&quot;evenodd&quot;,&quot;fillRuleOriginal&quot;:&quot;evenodd&quot;,&quot;isIcon&quot;:true,&quot;iconStyle&quot;:&quot;standalone&quot;,&quot;selectedEffects&quot;:{&quot;container&quot;:&quot;&quot;,&quot;transformation&quot;:&quot;&quot;,&quot;pattern&quot;:&quot;&quot;},&quot;bounds&quot;:{&quot;x&quot;:206.83685472472052,&quot;y&quot;:115.83294880731049,&quot;width&quot;:136.3262905505589,&quot;height&quot;:136.07767912322686},&quot;iconType&quot;:&quot;icon&quot;,&quot;rawIconId&quot;:&quot;37726&quot;,&quot;isDetailed&quot;:false,&quot;suitableAsStandaloneIcon&quot;:true}" fill-rule="evenodd"><path d="M326.99182,139.93997l-7.98061,7.98061c8.07202,9.8282 12.92358,22.39413 12.92358,36.07472c0,13.67898 -4.85476,26.2417 -12.92518,36.0699l-10.25643,-10.25643c5.48346,-7.15624 8.74723,-16.10075 8.74723,-25.81348c0,-21.56817 -16.07188,-39.37217 -36.88946,-42.12112l0.0016,-14.53061c11.49137,1.13069 21.99318,5.68394 30.45974,12.6365l7.98061,-7.98061c-11.8827,-10.0768 -27.25371,-16.1665 -44.05372,-16.1665c-37.64486,0 -68.16234,30.51748 -68.16234,68.16234c0,35.75395 27.53278,65.05574 62.54897,67.91375v-11.25721c-28.76932,-2.82914 -51.32223,-27.15427 -51.32223,-56.65654c0,-29.49906 22.55291,-53.8274 51.32063,-56.65654v14.529c-18.97639,2.50677 -33.99937,17.53456 -36.50615,36.51416h11.3791c2.65592,-14.5707 15.41591,-25.66112 30.74202,-25.66112c17.24427,0 31.27448,14.03022 31.27448,31.27448c0,17.24427 -14.03022,31.27448 -31.27448,31.27448c-15.3261,0 -28.08609,-11.09042 -30.74202,-25.66112h-11.3791c2.74894,20.81758 20.55295,36.88785 42.12112,36.88785c9.71434,0 18.66044,-3.26538 25.81669,-8.74723l10.25482,10.25322c-8.46817,6.95256 -18.96357,11.52024 -30.45654,12.65093v11.25721c35.0162,-2.8564 62.54897,-32.15979 62.54897,-67.91375c-0.0016,-16.80322 -6.09291,-32.17423 -16.17132,-44.05693zM291.63882,183.99529c0,0.27233 -0.00668,0.54449 -0.02005,0.81651c-0.01337,0.27201 -0.03341,0.54348 -0.06014,0.81442c-0.02662,0.27104 -0.05993,0.54124 -0.09992,0.81057c-0.03999,0.26944 -0.08655,0.5377 -0.13969,0.8048c-0.05303,0.26709 -0.11264,0.53268 -0.17883,0.79678c-0.06619,0.2642 -0.13879,0.52659 -0.2178,0.78715c-0.07912,0.26057 -0.16455,0.51905 -0.25629,0.77544c-0.09174,0.2564 -0.18968,0.51039 -0.29382,0.76198c-0.10425,0.25158 -0.21459,0.5005 -0.33103,0.74674c-0.11644,0.24613 -0.23886,0.48928 -0.36728,0.72942c-0.1283,0.24025 -0.26249,0.47714 -0.40256,0.71066c-0.13996,0.23362 -0.28559,0.46361 -0.43688,0.68996c-0.15129,0.22646 -0.30804,0.44907 -0.47024,0.66783c-0.1622,0.21865 -0.32969,0.43324 -0.50248,0.64377c-0.17279,0.21053 -0.3506,0.41667 -0.53343,0.61843c-0.18294,0.20176 -0.3707,0.39892 -0.56326,0.59149c-0.19257,0.19257 -0.38973,0.38032 -0.59149,0.56326c-0.20176,0.18283 -0.4079,0.36064 -0.61843,0.53343c-0.21053,0.17279 -0.42512,0.34028 -0.64377,0.50248c-0.21876,0.1622 -0.44137,0.31895 -0.66783,0.47024c-0.22635,0.15129 -0.45634,0.29692 -0.68996,0.43688c-0.23351,0.14007 -0.4704,0.27425 -0.71066,0.40256c-0.24015,0.12841 -0.48328,0.25084 -0.72942,0.36728c-0.24624,0.11644 -0.49515,0.22678 -0.74674,0.33103c-0.25158,0.10414 -0.50558,0.20208 -0.76198,0.29382c-0.2564,0.09174 -0.51488,0.17717 -0.77544,0.25629c-0.26057,0.07901 -0.52295,0.15162 -0.78715,0.2178c-0.2641,0.06619 -0.52969,0.1258 -0.79678,0.17883c-0.26709,0.05314 -0.53535,0.0997 -0.8048,0.13969c-0.26933,0.03999 -0.53952,0.0733 -0.81057,0.09992c-0.27094,0.02673 -0.54242,0.04678 -0.81442,0.06014c-0.27201,0.01337 -0.54417,0.02005 -0.81651,0.02005c-0.27233,0 -0.54449,-0.00668 -0.81651,-0.02005c-0.27201,-0.01337 -0.54348,-0.03341 -0.81442,-0.06014c-0.27104,-0.02662 -0.54124,-0.05993 -0.81057,-0.09992c-0.26944,-0.03999 -0.5377,-0.08655 -0.8048,-0.13969c-0.26709,-0.05303 -0.53268,-0.11264 -0.79678,-0.17883c-0.2642,-0.06619 -0.52659,-0.13879 -0.78715,-0.2178c-0.26057,-0.07912 -0.51905,-0.16455 -0.77544,-0.25629c-0.2564,-0.09174 -0.51039,-0.18968 -0.76198,-0.29382c-0.25158,-0.10425 -0.5005,-0.21459 -0.74674,-0.33103c-0.24613,-0.11644 -0.48928,-0.23886 -0.72942,-0.36728c-0.24025,-0.1283 -0.47714,-0.26249 -0.71066,-0.40256c-0.23362,-0.13996 -0.46361,-0.28559 -0.68996,-0.43688c-0.22646,-0.15129 -0.44907,-0.30804 -0.66783,-0.47024c-0.21865,-0.1622 -0.43324,-0.32969 -0.64377,-0.50248c-0.21053,-0.17279 -0.41667,-0.3506 -0.61843,-0.53343c-0.20176,-0.18294 -0.39892,-0.3707 -0.59149,-0.56326c-0.19257,-0.19257 -0.38032,-0.38973 -0.56326,-0.59149c-0.18283,-0.20176 -0.36064,-0.4079 -0.53343,-0.61843c-0.17279,-0.21053 -0.34028,-0.42512 -0.50248,-0.64377c-0.1622,-0.21876 -0.31895,-0.44137 -0.47024,-0.66783c-0.15129,-0.22635 -0.29692,-0.45634 -0.43688,-0.68996c-0.14007,-0.23351 -0.27425,-0.4704 -0.40256,-0.71066c-0.12841,-0.24015 -0.25084,-0.48328 -0.36728,-0.72942c-0.11644,-0.24624 -0.22678,-0.49515 -0.33103,-0.74674c-0.10414,-0.25158 -0.20208,-0.50558 -0.29382,-0.76198c-0.09174,-0.2564 -0.17717,-0.51488 -0.25629,-0.77544c-0.07901,-0.26057 -0.15162,-0.52295 -0.2178,-0.78715c-0.06619,-0.2641 -0.1258,-0.52969 -0.17883,-0.79678c-0.05314,-0.26709 -0.0997,-0.53535 -0.13969,-0.8048c-0.03999,-0.26933 -0.0733,-0.53952 -0.09992,-0.81057c-0.02673,-0.27094 -0.04678,-0.54242 -0.06014,-0.81442c-0.01337,-0.27201 -0.02005,-0.54417 -0.02005,-0.81651c0,-0.27233 0.00668,-0.54449 0.02005,-0.81651c0.01337,-0.27201 0.03341,-0.54348 0.06014,-0.81442c0.02662,-0.27104 0.05993,-0.54124 0.09992,-0.81057c0.03999,-0.26944 0.08655,-0.5377 0.13969,-0.8048c0.05303,-0.26709 0.11264,-0.53268 0.17883,-0.79678c0.06619,-0.2642 0.13879,-0.52659 0.2178,-0.78715c0.07912,-0.26057 0.16455,-0.51905 0.25629,-0.77544c0.09174,-0.2564 0.18968,-0.51039 0.29382,-0.76198c0.10425,-0.25158 0.21459,-0.5005 0.33103,-0.74674c0.11644,-0.24613 0.23886,-0.48928 0.36728,-0.72942c0.1283,-0.24025 0.26249,-0.47714 0.40256,-0.71066c0.13996,-0.23362 0.28559,-0.46361 0.43688,-0.68996c0.15129,-0.22646 0.30804,-0.44907 0.47024,-0.66783c0.1622,-0.21865 0.32969,-0.43324 0.50248,-0.64377c0.17279,-0.21053 0.3506,-0.41667 0.53343,-0.61843c0.18294,-0.20176 0.3707,-0.39892 0.56326,-0.59149c0.19257,-0.19257 0.38973,-0.38032 0.59149,-0.56326c0.20176,-0.18283 0.4079,-0.36064 0.61843,-0.53343c0.21053,-0.17279 0.42512,-0.34028 0.64377,-0.50248c0.21876,-0.1622 0.44137,-0.31895 0.66783,-0.47024c0.22635,-0.15129 0.45634,-0.29692 0.68996,-0.43688c0.23351,-0.14007 0.4704,-0.27425 0.71066,-0.40256c0.24015,-0.12841 0.48328,-0.25084 0.72942,-0.36728c0.24624,-0.11644 0.49515,-0.22678 0.74674,-0.33103c0.25158,-0.10414 0.50558,-0.20208 0.76198,-0.29382c0.2564,-0.09174 0.51488,-0.17717 0.77544,-0.25629c0.26057,-0.07901 0.52295,-0.15162 0.78715,-0.2178c0.2641,-0.06619 0.52969,-0.1258 0.79678,-0.17883c0.26709,-0.05314 0.53535,-0.0997 0.8048,-0.13969c0.26933,-0.03999 0.53952,-0.0733 0.81057,-0.09992c0.27094,-0.02673 0.54242,-0.04678 0.81442,-0.06014c0.27201,-0.01337 0.54417,-0.02005 0.81651,-0.02005c0.27233,0 0.54449,0.00668 0.81651,0.02005c0.27201,0.01337 0.54348,0.03341 0.81442,0.06014c0.27104,0.02662 0.54124,0.05993 0.81057,0.09992c0.26944,0.03999 0.5377,0.08655 0.8048,0.13969c0.26709,0.05303 0.53268,0.11264 0.79678,0.17883c0.2642,0.06619 0.52659,0.13879 0.78715,0.2178c0.26057,0.07912 0.51905,0.16455 0.77544,0.25629c0.2564,0.09174 0.51039,0.18968 0.76198,0.29382c0.25158,0.10425 0.5005,0.21459 0.74674,0.33103c0.24613,0.11644 0.48928,0.23886 0.72942,0.36728c0.24025,0.1283 0.47714,0.26249 0.71066,0.40256c0.23362,0.13996 0.46361,0.28559 0.68996,0.43688c0.22646,0.15129 0.44907,0.30804 0.66783,0.47024c0.21865,0.1622 0.43324,0.32969 0.64377,0.50248c0.21053,0.17279 0.41667,0.3506 0.61843,0.53343c0.20176,0.18294 0.39892,0.3707 0.59149,0.56326c0.19257,0.19257 0.38032,0.38973 0.56326,0.59149c0.18283,0.20176 0.36064,0.4079 0.53343,0.61843c0.17279,0.21053 0.34028,0.42512 0.50248,0.64377c0.1622,0.21876 0.31895,0.44137 0.47024,0.66783c0.15129,0.22635 0.29692,0.45634 0.43688,0.68996c0.14007,0.23351 0.27425,0.4704 0.40256,0.71066c0.12841,0.24015 0.25084,0.48328 0.36728,0.72942c0.11644,0.24624 0.22678,0.49515 0.33103,0.74674c0.10414,0.25158 0.20208,0.50558 0.29382,0.76198c0.09174,0.2564 0.17717,0.51488 0.25629,0.77544c0.07901,0.26057 0.15162,0.52295 0.2178,0.78715c0.06619,0.2641 0.1258,0.52969 0.17883,0.79678c0.05314,0.26709 0.0997,0.53535 0.13969,0.8048c0.03999,0.26933 0.0733,0.53952 0.09992,0.81057c0.02673,0.27094 0.04678,0.54242 0.06014,0.81442c0.01337,0.27201 0.02005,0.54417 0.02005,0.81651z" data-paper-data="{&quot;isPathIcon&quot;:true}"></path></g></g></g></svg>
